<mxfile host="Electron" modified="2025-03-21T22:58:54.063Z" agent="Mozilla/5.0 (Windows NT 10.0; Win64; x64) AppleWebKit/537.36 (KHTML, like Gecko) draw.io/24.6.1 Chrome/124.0.6367.207 Electron/30.0.6 Safari/537.36" etag="gHqTmfLVKh5Aq3Qx1w1V" version="24.6.1" type="device" pages="6">
  <diagram name="CRC Cards" id="PxjHjXYW0dwnvTJUmiTA">
    <mxGraphModel dx="880" dy="572" grid="1" gridSize="10" guides="1" tooltips="1" connect="1" arrows="1" fold="1" page="1" pageScale="1" pageWidth="1169" pageHeight="827" math="0" shadow="0">
      <root>
        <mxCell id="0" />
        <mxCell id="1" parent="0" />
        <mxCell id="LTU6GFJd_RuJXMN1xJVq-18" value="" style="endArrow=none;html=1;rounded=0;exitX=0.5;exitY=1;exitDx=0;exitDy=0;entryX=0.5;entryY=0;entryDx=0;entryDy=0;" edge="1" parent="1" source="Rh3huwqikJjAKOJhJt7S-2" target="Rh3huwqikJjAKOJhJt7S-2">
          <mxGeometry width="50" height="50" relative="1" as="geometry">
            <mxPoint x="160" y="520" as="sourcePoint" />
            <mxPoint x="210" y="470" as="targetPoint" />
          </mxGeometry>
        </mxCell>
        <mxCell id="LTU6GFJd_RuJXMN1xJVq-13" value="" style="endArrow=none;html=1;rounded=0;exitX=0.5;exitY=1;exitDx=0;exitDy=0;entryX=0.5;entryY=0;entryDx=0;entryDy=0;" edge="1" parent="1" source="Rh3huwqikJjAKOJhJt7S-4" target="Rh3huwqikJjAKOJhJt7S-4">
          <mxGeometry width="50" height="50" relative="1" as="geometry">
            <mxPoint x="710" y="320" as="sourcePoint" />
            <mxPoint x="760" y="270" as="targetPoint" />
          </mxGeometry>
        </mxCell>
        <mxCell id="LTU6GFJd_RuJXMN1xJVq-8" value="" style="endArrow=none;html=1;rounded=0;exitX=0.5;exitY=1;exitDx=0;exitDy=0;entryX=0.5;entryY=0;entryDx=0;entryDy=0;" edge="1" parent="1" source="Rh3huwqikJjAKOJhJt7S-5" target="Rh3huwqikJjAKOJhJt7S-5">
          <mxGeometry width="50" height="50" relative="1" as="geometry">
            <mxPoint x="510" y="610" as="sourcePoint" />
            <mxPoint x="560" y="560" as="targetPoint" />
          </mxGeometry>
        </mxCell>
        <mxCell id="LTU6GFJd_RuJXMN1xJVq-1" value="" style="endArrow=none;html=1;rounded=0;exitX=0.5;exitY=1;exitDx=0;exitDy=0;fontStyle=1;align=left;verticalAlign=top;fontSize=12;entryX=0.5;entryY=0;entryDx=0;entryDy=0;" edge="1" parent="1" source="Rh3huwqikJjAKOJhJt7S-1" target="Rh3huwqikJjAKOJhJt7S-1">
          <mxGeometry width="50" height="50" relative="1" as="geometry">
            <mxPoint x="450" y="340" as="sourcePoint" />
            <mxPoint x="230" y="83" as="targetPoint" />
          </mxGeometry>
        </mxCell>
        <mxCell id="LTU6GFJd_RuJXMN1xJVq-5" value="" style="endArrow=none;html=1;rounded=0;exitX=0.5;exitY=1;exitDx=0;exitDy=0;fontStyle=1;align=left;verticalAlign=top;fontSize=12;entryX=0.5;entryY=0;entryDx=0;entryDy=0;" edge="1" parent="1" source="Rh3huwqikJjAKOJhJt7S-3" target="Rh3huwqikJjAKOJhJt7S-3">
          <mxGeometry width="50" height="50" relative="1" as="geometry">
            <mxPoint x="690" y="298.5" as="sourcePoint" />
            <mxPoint x="720" y="110" as="targetPoint" />
          </mxGeometry>
        </mxCell>
        <mxCell id="Rh3huwqikJjAKOJhJt7S-1" value="Buyer" style="swimlane;whiteSpace=wrap;html=1;startSize=25;fontStyle=1;align=center;verticalAlign=top;fontSize=12;" vertex="1" parent="1">
          <mxGeometry x="60" y="60" width="340" height="140" as="geometry">
            <mxRectangle x="40" y="40" width="70" height="30" as="alternateBounds" />
          </mxGeometry>
        </mxCell>
        <mxCell id="Rh3huwqikJjAKOJhJt7S-6" value="&lt;ul&gt;&lt;li&gt;Sign in&lt;/li&gt;&lt;li&gt;Sign up&lt;/li&gt;&lt;li&gt;Edit Account&lt;/li&gt;&lt;li&gt;Add product to cart&lt;/li&gt;&lt;li&gt;Remove product from cart&lt;/li&gt;&lt;li&gt;Check out&lt;/li&gt;&lt;/ul&gt;" style="text;html=1;align=left;verticalAlign=top;whiteSpace=wrap;rounded=0;fontStyle=1;fontSize=12;" vertex="1" parent="Rh3huwqikJjAKOJhJt7S-1">
          <mxGeometry x="-20" y="10" width="172" height="129" as="geometry" />
        </mxCell>
        <mxCell id="LTU6GFJd_RuJXMN1xJVq-3" value="&lt;ul&gt;&lt;li&gt;&lt;span style=&quot;text-wrap: nowrap; font-size: 12px;&quot;&gt;Product&lt;/span&gt;&lt;/li&gt;&lt;li&gt;Listings&lt;/li&gt;&lt;li&gt;Purchases&lt;/li&gt;&lt;/ul&gt;" style="text;html=1;align=left;verticalAlign=top;whiteSpace=wrap;rounded=0;fontStyle=1;fontSize=12;" vertex="1" parent="Rh3huwqikJjAKOJhJt7S-1">
          <mxGeometry x="152" y="10" width="110" height="55" as="geometry" />
        </mxCell>
        <mxCell id="Rh3huwqikJjAKOJhJt7S-2" value="Seller" style="swimlane;whiteSpace=wrap;html=1;fontStyle=1;align=center;verticalAlign=top;fontSize=12;" vertex="1" parent="1">
          <mxGeometry x="30" y="243" width="430" height="160" as="geometry" />
        </mxCell>
        <mxCell id="LTU6GFJd_RuJXMN1xJVq-17" value="&lt;ul&gt;&lt;li&gt;Sign in&lt;/li&gt;&lt;li&gt;Sign up&lt;/li&gt;&lt;li&gt;Edit Account&lt;/li&gt;&lt;li&gt;Add product to listings&lt;/li&gt;&lt;li&gt;Remove product from listings&lt;/li&gt;&lt;li&gt;Adjust prices&lt;/li&gt;&lt;li&gt;Edit product&lt;/li&gt;&lt;/ul&gt;" style="text;html=1;align=left;verticalAlign=top;whiteSpace=wrap;rounded=0;fontStyle=1;fontSize=12;" vertex="1" parent="Rh3huwqikJjAKOJhJt7S-2">
          <mxGeometry x="-18" y="14" width="200" height="140" as="geometry" />
        </mxCell>
        <mxCell id="Rh3huwqikJjAKOJhJt7S-3" value="Admin" style="swimlane;whiteSpace=wrap;html=1;fontStyle=1;align=center;verticalAlign=top;fontSize=12;" vertex="1" parent="1">
          <mxGeometry x="480" y="40" width="350" height="200" as="geometry" />
        </mxCell>
        <mxCell id="LTU6GFJd_RuJXMN1xJVq-4" value="&lt;ul&gt;&lt;li&gt;&lt;b&gt;Create Admin account&lt;/b&gt;&lt;/li&gt;&lt;li&gt;&lt;b&gt;Sign in&lt;/b&gt;&lt;/li&gt;&lt;li&gt;&lt;b&gt;Sign up&lt;/b&gt;&lt;/li&gt;&lt;li&gt;&lt;b&gt;Edit Account&lt;/b&gt;&lt;/li&gt;&lt;li&gt;&lt;b&gt;Remove user account&lt;/b&gt;&lt;/li&gt;&lt;li&gt;&lt;b&gt;Get user, product and purchase insights&lt;/b&gt;&lt;/li&gt;&lt;li&gt;&lt;b&gt;Adjust product prices&lt;/b&gt;&lt;/li&gt;&lt;li&gt;&lt;b&gt;Remove product from listings&lt;/b&gt;&lt;/li&gt;&lt;li&gt;&lt;b&gt;Edit product details&lt;/b&gt;&lt;/li&gt;&lt;/ul&gt;" style="text;html=1;align=left;verticalAlign=top;whiteSpace=wrap;rounded=0;" vertex="1" parent="Rh3huwqikJjAKOJhJt7S-3">
          <mxGeometry x="-20" y="10.000000000000002" width="180" height="159.25" as="geometry" />
        </mxCell>
        <mxCell id="LTU6GFJd_RuJXMN1xJVq-6" value="&lt;ul&gt;&lt;li&gt;&lt;b&gt;Buyer&lt;/b&gt;&lt;/li&gt;&lt;li&gt;&lt;b&gt;Seller&lt;/b&gt;&lt;/li&gt;&lt;li&gt;&lt;b&gt;Product&lt;/b&gt;&lt;/li&gt;&lt;li&gt;&lt;b&gt;Listings&lt;/b&gt;&lt;/li&gt;&lt;li&gt;&lt;b&gt;Purchases&lt;/b&gt;&lt;/li&gt;&lt;/ul&gt;" style="text;html=1;align=left;verticalAlign=top;whiteSpace=wrap;rounded=0;" vertex="1" parent="Rh3huwqikJjAKOJhJt7S-3">
          <mxGeometry x="150" y="10" width="150" height="100" as="geometry" />
        </mxCell>
        <mxCell id="Rh3huwqikJjAKOJhJt7S-4" value="Listings" style="swimlane;whiteSpace=wrap;html=1;fontStyle=1;align=left;verticalAlign=top;fontSize=12;" vertex="1" parent="1">
          <mxGeometry x="880" y="40" width="280" height="80" as="geometry" />
        </mxCell>
        <mxCell id="LTU6GFJd_RuJXMN1xJVq-14" value="&lt;ul&gt;&lt;li&gt;&lt;b&gt;Decrease Stock&lt;/b&gt;&lt;/li&gt;&lt;li&gt;&lt;b&gt;Find Product&lt;/b&gt;&lt;/li&gt;&lt;/ul&gt;" style="text;html=1;align=left;verticalAlign=top;whiteSpace=wrap;rounded=0;" vertex="1" parent="Rh3huwqikJjAKOJhJt7S-4">
          <mxGeometry x="-20" y="10" width="150" height="80" as="geometry" />
        </mxCell>
        <mxCell id="LTU6GFJd_RuJXMN1xJVq-16" value="&lt;ul&gt;&lt;li&gt;&lt;span style=&quot;color: rgb(0, 0, 0); font-family: Helvetica; font-size: 12px; font-style: normal; font-variant-ligatures: normal; font-variant-caps: normal; letter-spacing: normal; orphans: 2; text-indent: 0px; text-transform: none; widows: 2; word-spacing: 0px; -webkit-text-stroke-width: 0px; white-space: nowrap; background-color: rgb(251, 251, 251); text-decoration-thickness: initial; text-decoration-style: initial; text-decoration-color: initial; float: none; display: inline !important;&quot;&gt;Product&lt;/span&gt;&lt;/li&gt;&lt;li&gt;Buyer&lt;/li&gt;&lt;li&gt;Seller&lt;/li&gt;&lt;/ul&gt;" style="text;html=1;align=left;verticalAlign=top;whiteSpace=wrap;rounded=0;fontStyle=1" vertex="1" parent="Rh3huwqikJjAKOJhJt7S-4">
          <mxGeometry x="120" y="10" width="150" height="70" as="geometry" />
        </mxCell>
        <mxCell id="Rh3huwqikJjAKOJhJt7S-5" value="Order" style="swimlane;whiteSpace=wrap;html=1;fontStyle=1;align=center;verticalAlign=top;fontSize=12;" vertex="1" parent="1">
          <mxGeometry x="520" y="275" width="390" height="96" as="geometry" />
        </mxCell>
        <mxCell id="LTU6GFJd_RuJXMN1xJVq-9" value="&lt;ul&gt;&lt;li&gt;Buyer&lt;/li&gt;&lt;li&gt;Seller&lt;/li&gt;&lt;li&gt;Listings&lt;/li&gt;&lt;/ul&gt;" style="text;html=1;align=left;verticalAlign=top;whiteSpace=wrap;rounded=0;fontStyle=1" vertex="1" parent="Rh3huwqikJjAKOJhJt7S-5">
          <mxGeometry x="180" y="16" width="115" height="70" as="geometry" />
        </mxCell>
        <mxCell id="LTU6GFJd_RuJXMN1xJVq-20" value="&lt;ul&gt;&lt;li&gt;&lt;b&gt;Process order&lt;/b&gt;&lt;/li&gt;&lt;/ul&gt;" style="text;html=1;align=left;verticalAlign=middle;resizable=0;points=[];autosize=1;strokeColor=none;fillColor=none;" vertex="1" parent="Rh3huwqikJjAKOJhJt7S-5">
          <mxGeometry x="-20" y="16" width="140" height="50" as="geometry" />
        </mxCell>
        <mxCell id="LTU6GFJd_RuJXMN1xJVq-19" value="&lt;ul&gt;&lt;li&gt;&lt;b&gt;Product&lt;/b&gt;&lt;/li&gt;&lt;li&gt;&lt;b&gt;Listings&lt;/b&gt;&lt;/li&gt;&lt;li&gt;&lt;b&gt;Order&lt;/b&gt;&lt;/li&gt;&lt;li&gt;&lt;b&gt;Buyer&lt;/b&gt;&lt;/li&gt;&lt;/ul&gt;" style="text;html=1;align=left;verticalAlign=middle;resizable=0;points=[];autosize=1;strokeColor=none;fillColor=none;" vertex="1" parent="1">
          <mxGeometry x="245" y="246" width="110" height="100" as="geometry" />
        </mxCell>
      </root>
    </mxGraphModel>
  </diagram>
  <diagram id="vVW0N-NkjtfEsIt8ijUg" name="Use Case Diagram">
    <mxGraphModel dx="2426" dy="817" grid="1" gridSize="10" guides="1" tooltips="1" connect="1" arrows="1" fold="1" page="1" pageScale="1" pageWidth="1169" pageHeight="827" math="0" shadow="0">
      <root>
        <mxCell id="0" />
        <mxCell id="1" parent="0" />
        <mxCell id="TgpMc1vdEvYO4iTjg9ho-1" value="Buyer" style="shape=umlActor;verticalLabelPosition=bottom;verticalAlign=top;html=1;outlineConnect=0;fontStyle=1;fontSize=14;" vertex="1" parent="1">
          <mxGeometry x="-140" y="40" width="50" height="80" as="geometry" />
        </mxCell>
        <mxCell id="TgpMc1vdEvYO4iTjg9ho-2" value="Seller" style="shape=umlActor;verticalLabelPosition=bottom;verticalAlign=top;html=1;outlineConnect=0;fontStyle=1;fontSize=14;" vertex="1" parent="1">
          <mxGeometry x="-150" y="300" width="60" height="90" as="geometry" />
        </mxCell>
        <mxCell id="TgpMc1vdEvYO4iTjg9ho-4" value="Admin" style="shape=umlActor;verticalLabelPosition=bottom;verticalAlign=top;html=1;outlineConnect=0;fontStyle=1;fontSize=14;" vertex="1" parent="1">
          <mxGeometry x="1070" y="120" width="60" height="110" as="geometry" />
        </mxCell>
        <mxCell id="TgpMc1vdEvYO4iTjg9ho-7" value="Garden To Table" style="swimlane;whiteSpace=wrap;html=1;fontStyle=1;fontSize=14;" vertex="1" parent="1">
          <mxGeometry x="130" width="550" height="794" as="geometry" />
        </mxCell>
        <mxCell id="TgpMc1vdEvYO4iTjg9ho-10" value="Add product to cart" style="ellipse;whiteSpace=wrap;html=1;fontStyle=1;fontSize=14;" vertex="1" parent="TgpMc1vdEvYO4iTjg9ho-7">
          <mxGeometry x="60" y="376" width="120" height="80" as="geometry" />
        </mxCell>
        <mxCell id="TgpMc1vdEvYO4iTjg9ho-11" value="Remove product from cart" style="ellipse;whiteSpace=wrap;html=1;fontStyle=1;fontSize=14;" vertex="1" parent="TgpMc1vdEvYO4iTjg9ho-7">
          <mxGeometry x="200" y="280" width="120" height="80" as="geometry" />
        </mxCell>
        <mxCell id="TgpMc1vdEvYO4iTjg9ho-12" value="Sign in" style="ellipse;whiteSpace=wrap;html=1;fontStyle=1;fontSize=14;" vertex="1" parent="TgpMc1vdEvYO4iTjg9ho-7">
          <mxGeometry x="40" y="40" width="120" height="80" as="geometry" />
        </mxCell>
        <mxCell id="TgpMc1vdEvYO4iTjg9ho-13" value="Sign up" style="ellipse;whiteSpace=wrap;html=1;fontStyle=1;fontSize=14;" vertex="1" parent="TgpMc1vdEvYO4iTjg9ho-7">
          <mxGeometry x="210" y="120" width="120" height="80" as="geometry" />
        </mxCell>
        <mxCell id="TgpMc1vdEvYO4iTjg9ho-14" value="Create admin account" style="ellipse;whiteSpace=wrap;html=1;fontStyle=1;fontSize=14;" vertex="1" parent="TgpMc1vdEvYO4iTjg9ho-7">
          <mxGeometry x="395" y="30" width="120" height="80" as="geometry" />
        </mxCell>
        <mxCell id="TgpMc1vdEvYO4iTjg9ho-15" value="Add product to inventory" style="ellipse;whiteSpace=wrap;html=1;fontStyle=1;fontSize=14;" vertex="1" parent="TgpMc1vdEvYO4iTjg9ho-7">
          <mxGeometry x="60" y="560" width="120" height="80" as="geometry" />
        </mxCell>
        <mxCell id="TgpMc1vdEvYO4iTjg9ho-16" value="Remove product from inventory" style="ellipse;whiteSpace=wrap;html=1;fontStyle=1;fontSize=14;" vertex="1" parent="TgpMc1vdEvYO4iTjg9ho-7">
          <mxGeometry x="380" y="560" width="120" height="80" as="geometry" />
        </mxCell>
        <mxCell id="TgpMc1vdEvYO4iTjg9ho-17" value="Adjust product prices" style="ellipse;whiteSpace=wrap;html=1;fontStyle=1;fontSize=14;" vertex="1" parent="TgpMc1vdEvYO4iTjg9ho-7">
          <mxGeometry x="60" y="660" width="120" height="80" as="geometry" />
        </mxCell>
        <mxCell id="TgpMc1vdEvYO4iTjg9ho-18" value="Edit product details" style="ellipse;whiteSpace=wrap;html=1;fontStyle=1;fontSize=14;" vertex="1" parent="TgpMc1vdEvYO4iTjg9ho-7">
          <mxGeometry x="390" y="690" width="120" height="80" as="geometry" />
        </mxCell>
        <mxCell id="TgpMc1vdEvYO4iTjg9ho-19" value="Edit Account" style="ellipse;whiteSpace=wrap;html=1;fontStyle=1;fontSize=14;" vertex="1" parent="TgpMc1vdEvYO4iTjg9ho-7">
          <mxGeometry x="70" y="240" width="120" height="80" as="geometry" />
        </mxCell>
        <mxCell id="TgpMc1vdEvYO4iTjg9ho-20" value="Checkout/Process purchase" style="ellipse;whiteSpace=wrap;html=1;fontStyle=1;fontSize=14;" vertex="1" parent="TgpMc1vdEvYO4iTjg9ho-7">
          <mxGeometry x="210" y="456" width="140" height="84" as="geometry" />
        </mxCell>
        <mxCell id="TgpMc1vdEvYO4iTjg9ho-22" value="Remove user account" style="ellipse;whiteSpace=wrap;html=1;fontStyle=1;fontSize=14;" vertex="1" parent="TgpMc1vdEvYO4iTjg9ho-7">
          <mxGeometry x="380" y="240" width="120" height="80" as="geometry" />
        </mxCell>
        <mxCell id="TgpMc1vdEvYO4iTjg9ho-23" value="Get user, product and purchase insights" style="ellipse;whiteSpace=wrap;html=1;fontStyle=1;fontSize=14;" vertex="1" parent="TgpMc1vdEvYO4iTjg9ho-7">
          <mxGeometry x="340" y="360" width="145" height="90" as="geometry" />
        </mxCell>
        <mxCell id="TgpMc1vdEvYO4iTjg9ho-25" value="" style="endArrow=none;html=1;rounded=0;entryX=0;entryY=0.5;entryDx=0;entryDy=0;exitX=0.5;exitY=0.5;exitDx=0;exitDy=0;exitPerimeter=0;fontStyle=1;fontSize=14;" edge="1" parent="1" source="TgpMc1vdEvYO4iTjg9ho-1" target="TgpMc1vdEvYO4iTjg9ho-12">
          <mxGeometry width="50" height="50" relative="1" as="geometry">
            <mxPoint x="60" y="120" as="sourcePoint" />
            <mxPoint x="110" y="70" as="targetPoint" />
          </mxGeometry>
        </mxCell>
        <mxCell id="TgpMc1vdEvYO4iTjg9ho-26" value="" style="endArrow=none;html=1;rounded=0;entryX=0;entryY=0.5;entryDx=0;entryDy=0;exitX=0.5;exitY=0.5;exitDx=0;exitDy=0;exitPerimeter=0;fontStyle=1;fontSize=14;" edge="1" parent="1" source="TgpMc1vdEvYO4iTjg9ho-1" target="TgpMc1vdEvYO4iTjg9ho-13">
          <mxGeometry width="50" height="50" relative="1" as="geometry">
            <mxPoint x="480" y="370" as="sourcePoint" />
            <mxPoint x="530" y="320" as="targetPoint" />
          </mxGeometry>
        </mxCell>
        <mxCell id="TgpMc1vdEvYO4iTjg9ho-27" value="" style="endArrow=none;html=1;rounded=0;exitX=1;exitY=0.5;exitDx=0;exitDy=0;entryX=0.5;entryY=0.5;entryDx=0;entryDy=0;entryPerimeter=0;fontStyle=1;fontSize=14;" edge="1" parent="1" source="TgpMc1vdEvYO4iTjg9ho-14" target="TgpMc1vdEvYO4iTjg9ho-4">
          <mxGeometry width="50" height="50" relative="1" as="geometry">
            <mxPoint x="-130" y="440" as="sourcePoint" />
            <mxPoint x="-80" y="390" as="targetPoint" />
          </mxGeometry>
        </mxCell>
        <mxCell id="TgpMc1vdEvYO4iTjg9ho-28" value="" style="endArrow=none;html=1;rounded=0;entryX=0;entryY=0.5;entryDx=0;entryDy=0;exitX=0.5;exitY=0.5;exitDx=0;exitDy=0;exitPerimeter=0;fontStyle=1;fontSize=14;" edge="1" parent="1" source="TgpMc1vdEvYO4iTjg9ho-1" target="TgpMc1vdEvYO4iTjg9ho-19">
          <mxGeometry width="50" height="50" relative="1" as="geometry">
            <mxPoint x="-120" y="450" as="sourcePoint" />
            <mxPoint x="-70" y="400" as="targetPoint" />
          </mxGeometry>
        </mxCell>
        <mxCell id="TgpMc1vdEvYO4iTjg9ho-29" value="" style="endArrow=none;html=1;rounded=0;entryX=0;entryY=0.5;entryDx=0;entryDy=0;exitX=0.5;exitY=0.5;exitDx=0;exitDy=0;exitPerimeter=0;fontStyle=1;fontSize=14;" edge="1" parent="1" source="TgpMc1vdEvYO4iTjg9ho-1" target="TgpMc1vdEvYO4iTjg9ho-10">
          <mxGeometry width="50" height="50" relative="1" as="geometry">
            <mxPoint x="-110" y="460" as="sourcePoint" />
            <mxPoint x="-60" y="410" as="targetPoint" />
          </mxGeometry>
        </mxCell>
        <mxCell id="TgpMc1vdEvYO4iTjg9ho-30" value="" style="endArrow=none;html=1;rounded=0;entryX=0.5;entryY=0;entryDx=0;entryDy=0;exitX=0.5;exitY=0.5;exitDx=0;exitDy=0;exitPerimeter=0;fontStyle=1;fontSize=14;" edge="1" parent="1" source="TgpMc1vdEvYO4iTjg9ho-1" target="TgpMc1vdEvYO4iTjg9ho-11">
          <mxGeometry width="50" height="50" relative="1" as="geometry">
            <mxPoint x="-100" y="470" as="sourcePoint" />
            <mxPoint x="-50" y="420" as="targetPoint" />
          </mxGeometry>
        </mxCell>
        <mxCell id="TgpMc1vdEvYO4iTjg9ho-31" value="" style="endArrow=none;html=1;rounded=0;entryX=0.5;entryY=0;entryDx=0;entryDy=0;exitX=0.5;exitY=0.5;exitDx=0;exitDy=0;exitPerimeter=0;fontStyle=1;fontSize=14;" edge="1" parent="1" source="TgpMc1vdEvYO4iTjg9ho-1" target="TgpMc1vdEvYO4iTjg9ho-20">
          <mxGeometry width="50" height="50" relative="1" as="geometry">
            <mxPoint x="-90" y="480" as="sourcePoint" />
            <mxPoint x="-40" y="430" as="targetPoint" />
          </mxGeometry>
        </mxCell>
        <mxCell id="TgpMc1vdEvYO4iTjg9ho-32" value="" style="endArrow=none;html=1;rounded=0;entryX=0;entryY=0.5;entryDx=0;entryDy=0;exitX=0.5;exitY=0.5;exitDx=0;exitDy=0;exitPerimeter=0;fontStyle=1;fontSize=14;" edge="1" parent="1" source="TgpMc1vdEvYO4iTjg9ho-2" target="TgpMc1vdEvYO4iTjg9ho-12">
          <mxGeometry width="50" height="50" relative="1" as="geometry">
            <mxPoint x="-80" y="490" as="sourcePoint" />
            <mxPoint x="-30" y="440" as="targetPoint" />
          </mxGeometry>
        </mxCell>
        <mxCell id="TgpMc1vdEvYO4iTjg9ho-33" value="" style="endArrow=none;html=1;rounded=0;entryX=0;entryY=0.5;entryDx=0;entryDy=0;fontStyle=1;fontSize=14;" edge="1" parent="1" source="TgpMc1vdEvYO4iTjg9ho-2" target="TgpMc1vdEvYO4iTjg9ho-13">
          <mxGeometry width="50" height="50" relative="1" as="geometry">
            <mxPoint x="-70" y="500" as="sourcePoint" />
            <mxPoint x="-20" y="450" as="targetPoint" />
          </mxGeometry>
        </mxCell>
        <mxCell id="TgpMc1vdEvYO4iTjg9ho-34" value="" style="endArrow=none;html=1;rounded=0;entryX=-0.015;entryY=0.627;entryDx=0;entryDy=0;entryPerimeter=0;exitX=0.5;exitY=0.5;exitDx=0;exitDy=0;exitPerimeter=0;fontStyle=1;fontSize=14;" edge="1" parent="1" source="TgpMc1vdEvYO4iTjg9ho-2" target="TgpMc1vdEvYO4iTjg9ho-19">
          <mxGeometry width="50" height="50" relative="1" as="geometry">
            <mxPoint x="-60" y="510" as="sourcePoint" />
            <mxPoint x="-10" y="460" as="targetPoint" />
          </mxGeometry>
        </mxCell>
        <mxCell id="TgpMc1vdEvYO4iTjg9ho-35" value="" style="endArrow=none;html=1;rounded=0;entryX=0.5;entryY=0.5;entryDx=0;entryDy=0;entryPerimeter=0;exitX=0.5;exitY=0;exitDx=0;exitDy=0;fontStyle=1;fontSize=14;" edge="1" parent="1" source="TgpMc1vdEvYO4iTjg9ho-15" target="TgpMc1vdEvYO4iTjg9ho-2">
          <mxGeometry width="50" height="50" relative="1" as="geometry">
            <mxPoint x="-50" y="520" as="sourcePoint" />
            <mxPoint y="470" as="targetPoint" />
          </mxGeometry>
        </mxCell>
        <mxCell id="TgpMc1vdEvYO4iTjg9ho-36" value="" style="endArrow=none;html=1;rounded=0;exitX=0;exitY=0.5;exitDx=0;exitDy=0;entryX=0.5;entryY=0.5;entryDx=0;entryDy=0;entryPerimeter=0;fontStyle=1;fontSize=14;" edge="1" parent="1" source="TgpMc1vdEvYO4iTjg9ho-17" target="TgpMc1vdEvYO4iTjg9ho-2">
          <mxGeometry width="50" height="50" relative="1" as="geometry">
            <mxPoint x="-40" y="530" as="sourcePoint" />
            <mxPoint x="10" y="480" as="targetPoint" />
          </mxGeometry>
        </mxCell>
        <mxCell id="TgpMc1vdEvYO4iTjg9ho-37" value="" style="endArrow=none;html=1;rounded=0;exitX=0.5;exitY=0;exitDx=0;exitDy=0;fontStyle=1;fontSize=14;" edge="1" parent="1" source="TgpMc1vdEvYO4iTjg9ho-18" target="TgpMc1vdEvYO4iTjg9ho-2">
          <mxGeometry width="50" height="50" relative="1" as="geometry">
            <mxPoint x="-120" y="550" as="sourcePoint" />
            <mxPoint x="-50" y="490" as="targetPoint" />
          </mxGeometry>
        </mxCell>
        <mxCell id="TgpMc1vdEvYO4iTjg9ho-38" value="" style="endArrow=none;html=1;rounded=0;entryX=0.5;entryY=0.5;entryDx=0;entryDy=0;entryPerimeter=0;exitX=0;exitY=0.5;exitDx=0;exitDy=0;fontStyle=1;fontSize=14;" edge="1" parent="1" source="TgpMc1vdEvYO4iTjg9ho-16" target="TgpMc1vdEvYO4iTjg9ho-2">
          <mxGeometry width="50" height="50" relative="1" as="geometry">
            <mxPoint x="-20" y="550" as="sourcePoint" />
            <mxPoint x="30" y="500" as="targetPoint" />
          </mxGeometry>
        </mxCell>
        <mxCell id="TgpMc1vdEvYO4iTjg9ho-39" value="" style="endArrow=none;html=1;rounded=0;entryX=0.5;entryY=0.5;entryDx=0;entryDy=0;entryPerimeter=0;exitX=1;exitY=0.5;exitDx=0;exitDy=0;fontStyle=1;fontSize=14;" edge="1" parent="1" source="TgpMc1vdEvYO4iTjg9ho-12" target="TgpMc1vdEvYO4iTjg9ho-4">
          <mxGeometry width="50" height="50" relative="1" as="geometry">
            <mxPoint x="-10" y="560" as="sourcePoint" />
            <mxPoint x="40" y="510" as="targetPoint" />
          </mxGeometry>
        </mxCell>
        <mxCell id="TgpMc1vdEvYO4iTjg9ho-40" value="" style="endArrow=none;html=1;rounded=0;entryX=0.5;entryY=0.5;entryDx=0;entryDy=0;entryPerimeter=0;exitX=1;exitY=0.5;exitDx=0;exitDy=0;fontStyle=1;fontSize=14;" edge="1" parent="1" source="TgpMc1vdEvYO4iTjg9ho-13" target="TgpMc1vdEvYO4iTjg9ho-4">
          <mxGeometry width="50" height="50" relative="1" as="geometry">
            <mxPoint y="570" as="sourcePoint" />
            <mxPoint x="50" y="520" as="targetPoint" />
          </mxGeometry>
        </mxCell>
        <mxCell id="TgpMc1vdEvYO4iTjg9ho-41" value="" style="endArrow=none;html=1;rounded=0;entryX=0.5;entryY=0.5;entryDx=0;entryDy=0;entryPerimeter=0;exitX=1;exitY=0.5;exitDx=0;exitDy=0;fontStyle=1;fontSize=14;" edge="1" parent="1" source="TgpMc1vdEvYO4iTjg9ho-19" target="TgpMc1vdEvYO4iTjg9ho-4">
          <mxGeometry width="50" height="50" relative="1" as="geometry">
            <mxPoint x="10" y="580" as="sourcePoint" />
            <mxPoint x="60" y="530" as="targetPoint" />
          </mxGeometry>
        </mxCell>
        <mxCell id="TgpMc1vdEvYO4iTjg9ho-42" value="" style="endArrow=none;html=1;rounded=0;entryX=0.5;entryY=0.5;entryDx=0;entryDy=0;entryPerimeter=0;exitX=1;exitY=0.5;exitDx=0;exitDy=0;fontStyle=1;fontSize=14;" edge="1" parent="1" source="TgpMc1vdEvYO4iTjg9ho-22" target="TgpMc1vdEvYO4iTjg9ho-4">
          <mxGeometry width="50" height="50" relative="1" as="geometry">
            <mxPoint x="20" y="590" as="sourcePoint" />
            <mxPoint x="70" y="540" as="targetPoint" />
          </mxGeometry>
        </mxCell>
        <mxCell id="TgpMc1vdEvYO4iTjg9ho-43" value="" style="endArrow=none;html=1;rounded=0;entryX=0.5;entryY=0.5;entryDx=0;entryDy=0;entryPerimeter=0;exitX=1;exitY=0.5;exitDx=0;exitDy=0;fontStyle=1;fontSize=14;" edge="1" parent="1" source="TgpMc1vdEvYO4iTjg9ho-23" target="TgpMc1vdEvYO4iTjg9ho-4">
          <mxGeometry width="50" height="50" relative="1" as="geometry">
            <mxPoint x="30" y="600" as="sourcePoint" />
            <mxPoint x="80" y="550" as="targetPoint" />
          </mxGeometry>
        </mxCell>
        <mxCell id="TgpMc1vdEvYO4iTjg9ho-44" value="" style="endArrow=none;html=1;rounded=0;entryX=0.5;entryY=0.5;entryDx=0;entryDy=0;entryPerimeter=0;exitX=1;exitY=0.5;exitDx=0;exitDy=0;fontStyle=1;fontSize=14;" edge="1" parent="1" source="TgpMc1vdEvYO4iTjg9ho-18" target="TgpMc1vdEvYO4iTjg9ho-4">
          <mxGeometry width="50" height="50" relative="1" as="geometry">
            <mxPoint x="40" y="610" as="sourcePoint" />
            <mxPoint x="90" y="560" as="targetPoint" />
          </mxGeometry>
        </mxCell>
        <mxCell id="TgpMc1vdEvYO4iTjg9ho-45" value="" style="endArrow=none;html=1;rounded=0;entryX=1;entryY=0.5;entryDx=0;entryDy=0;exitX=0.5;exitY=0.5;exitDx=0;exitDy=0;exitPerimeter=0;fontStyle=1;fontSize=14;" edge="1" parent="1" source="TgpMc1vdEvYO4iTjg9ho-4" target="TgpMc1vdEvYO4iTjg9ho-16">
          <mxGeometry width="50" height="50" relative="1" as="geometry">
            <mxPoint x="50" y="620" as="sourcePoint" />
            <mxPoint x="100" y="570" as="targetPoint" />
          </mxGeometry>
        </mxCell>
        <mxCell id="TgpMc1vdEvYO4iTjg9ho-46" value="" style="endArrow=none;html=1;rounded=0;exitX=1;exitY=0.5;exitDx=0;exitDy=0;entryX=0.5;entryY=0.5;entryDx=0;entryDy=0;entryPerimeter=0;fontStyle=1;fontSize=14;" edge="1" parent="1" source="TgpMc1vdEvYO4iTjg9ho-17" target="TgpMc1vdEvYO4iTjg9ho-4">
          <mxGeometry width="50" height="50" relative="1" as="geometry">
            <mxPoint x="480" y="510" as="sourcePoint" />
            <mxPoint x="530" y="460" as="targetPoint" />
          </mxGeometry>
        </mxCell>
      </root>
    </mxGraphModel>
  </diagram>
  <diagram id="9m0qGOmZ9nP6rqnwn8UV" name="Database Design">
    <mxGraphModel dx="1120" dy="572" grid="1" gridSize="10" guides="1" tooltips="1" connect="1" arrows="1" fold="1" page="1" pageScale="1" pageWidth="1169" pageHeight="827" math="0" shadow="0">
      <root>
        <mxCell id="0" />
        <mxCell id="1" parent="0" />
      </root>
    </mxGraphModel>
  </diagram>
  <diagram id="bl1wvY2Thi1xgG-fTtX_" name="EERD">
    <mxGraphModel dx="1120" dy="572" grid="1" gridSize="10" guides="1" tooltips="1" connect="1" arrows="1" fold="1" page="1" pageScale="1" pageWidth="1169" pageHeight="827" math="0" shadow="0">
      <root>
        <mxCell id="0" />
        <mxCell id="1" parent="0" />
      </root>
    </mxGraphModel>
  </diagram>
  <diagram id="O41k2Fate3-C3zNZterO" name="Context Diagram">
    <mxGraphModel dx="1120" dy="572" grid="1" gridSize="10" guides="1" tooltips="1" connect="1" arrows="1" fold="1" page="1" pageScale="1" pageWidth="1169" pageHeight="827" math="0" shadow="0">
      <root>
        <mxCell id="0" />
        <mxCell id="1" parent="0" />
      </root>
    </mxGraphModel>
  </diagram>
  <diagram id="HK_LMvivd4J3BtTket9t" name="Data Flow Diagram">
    <mxGraphModel dx="1120" dy="572" grid="1" gridSize="10" guides="1" tooltips="1" connect="1" arrows="1" fold="1" page="1" pageScale="1" pageWidth="1169" pageHeight="827" math="0" shadow="0">
      <root>
        <mxCell id="0" />
        <mxCell id="1" parent="0" />
      </root>
    </mxGraphModel>
  </diagram>
</mxfile>
